<?xml version="1.0" encoding="UTF-8" standalone="no"?>
<!DOCTYPE svg PUBLIC "-//W3C//DTD SVG 1.1//EN" "http://www.w3.org/Graphics/SVG/1.1/DTD/svg11.dtd">
<svg width="120pt" height="120pt" stroke="#eee" viewBox="0 0 120 120" overflow="visible" version="1.1" xmlns="http://www.w3.org/2000/svg">
  <path d="M27.264,101.2367 C34.5018,107.083 44.17904,111.2181 54.19189,112.3295 C64.20474,113.4408 74.5532,111.5284 82.89685,107.4114 C91.30901,103.4363 99.24107,96.52039 104.5962,87.98724 C109.9514,79.45409 112.7296,69.30374 112.6508,60 C112.7296,50.69626 109.9514,40.54591 104.5962,32.01276 C99.24107,23.47962 91.30901,16.56366 82.89685,12.58858 C74.5532,8.471613 64.20474,6.559186 54.19189,7.670523 C44.17904,8.78186 34.5018,12.91696 27.264,18.76333 C40.87492,10.32487 61.26908,10.32487 74.88,18.76333 C88.99339,26.33151 99.19046,43.99337 98.688,60 C99.19046,76.00664 88.99339,93.6685 74.88,101.2367 C61.26908,109.6751 40.87492,109.6751 27.264,101.2367 z" stroke-width="6" fill-opacity="0" />
</svg>
