<svg width="528" height="529" viewBox="0 0 528 529" fill="none" xmlns="http://www.w3.org/2000/svg">
  <path d="M266.159 27.6715L29.369 264.779L265.172 500.899L501.962 263.792L266.159 27.6715Z" fill="#019833" stroke="black" stroke-width="1.3822"/>
  <path d="M265.172 28.6595V7.91254L7.66333 265.767H29.369L265.172 28.6595Z" fill="#66FE98" stroke="black" stroke-width="1.3822"/>
  <path d="M264.58 28.6595V7.91254L522.089 265.767H500.383L264.58 28.6595Z" fill="#45FE02" stroke="black" stroke-width="1.3822"/>
  <path d="M265.172 502.283V523.03L7.66333 265.175H29.369L265.172 502.283Z" fill="#017D17" stroke="black" stroke-width="1.3822"/>
  <path d="M55.4355 34.0995H221.476L231.592 44.229V75.3161L223.569 85.0963H205.43V239.484L361.703 85.0963H335.89L326.821 75.3161V42.4825L335.192 34.7981H503.326L511.697 43.1811V73.9189L131.479 464.428H88.225L75.7048 457.19V83.6991H54.7378L47.0637 76.0147V43.1811L55.4355 34.0995V34.0995Z" stroke="black" stroke-width="27.644"/>
  <path d="M264.58 502.283V523.03L522.089 265.175H500.383L264.58 502.283Z" fill="#005D04" stroke="black" stroke-width="1.3822"/>
  <path d="M264.477 6L6 264.825L263.4 522.571L521.878 263.746L264.477 6Z" stroke="black" stroke-width="8.29321"/>
  <path d="M223.241 49.9004L232.613 44.9607L222.994 35.3282H55.5145L47.0049 43.8492V76.0811L56.4395 85.5284L60.9409 76.0811L55.0212 70.1534V47.4306L59.461 43.4788H219.294L223.241 49.9004Z" fill="#FEFEFE" stroke="black" stroke-width="1.3822"/>
  <path d="M341.648 42.4838L335.734 48.4053V70.1464L340.914 75.3332H368.28V96.3394L187.247 280.08V75.5925H217.333L223.506 69.4116V47.4112L217.808 43.0025H59.4796L54.2998 48.1892V70.6651L59.5659 75.9383H87.105V452.495L92.2848 457.682H123.579L502.955 65.6945V48.4053L497.041 42.4838H341.648Z" stroke="black" stroke-width="1.3822"/>
  <path d="M86.8297 75.3161V452.552L91.7132 458.141L87.8835 465.45L77.0626 454.648V85.0963L86.8297 75.3161Z" fill="#FEFEFE" stroke="black" stroke-width="1.3822"/>
  <path d="M59.7723 75.3161L56.9817 84.3977H77.2135L88.3759 75.3161H59.7723Z" fill="#808080" stroke="black" stroke-width="1.3822"/>
  <path d="M337.689 85.516L342.129 76.3775L335.716 70.4498V50.1968L343.115 42.7872H497.522L503.442 50.6908L511.828 44.7631L503.195 36.1185H337.196L328.933 44.3926V76.8714L337.504 84.9603L337.689 85.516ZM203.354 240.914L187.229 280.093L369.261 97.322V75.5871L203.354 240.914Z" fill="#FEFEFE" stroke="black" stroke-width="1.3822"/>
  <path d="M222.871 48.7698L230.894 43.5304V75.3161L221.65 84.5723H203.686V241.23L187.291 280.002V75.3161H217.29L222.871 70.7753V48.7698Z" fill="#808080" stroke="black" stroke-width="1.3822"/>
  <path d="M341.648 42.4838L335.734 48.4053V70.1464L340.914 75.3332H368.28V96.3394L187.247 280.08V75.5925H217.333L223.506 69.4116V47.4112L217.808 43.0025H59.4796L54.2998 48.1892V70.6651L59.5659 75.9383H87.105V452.495L92.2848 457.682H123.579L502.955 65.6945V48.4053L497.041 42.4838H341.648Z" fill="#CCCCCC" stroke="black" stroke-width="1.3822"/>
  <path d="M503.442 48.9125L511.868 44.0413V74.5991L129.704 465.637H89.1299L93.0063 457.924H124.085L502.948 66.2016L503.442 48.9125Z" fill="#808080" stroke="black" stroke-width="1.3822"/>
  <path d="M368.505 75.84L359.959 84.747H337.634L342.867 75.84C343.041 75.84 368.505 75.84 368.505 75.84Z" fill="#808080" stroke="black" stroke-width="1.3822"/>
  <path d="M277.375 296.307C277.087 296.368 276.819 296.502 276.598 296.696L269.26 303.007C269.041 303.206 268.877 303.46 268.785 303.742L261.447 324.316C261.339 324.618 261.318 324.944 261.387 325.258C261.455 325.571 261.611 325.859 261.836 326.088L267.447 331.707C267.772 332.019 268.206 332.19 268.656 332.182H291.317C291.767 332.19 292.202 332.019 292.526 331.707L298.439 325.742C298.643 325.538 298.792 325.285 298.871 325.007L305.173 303.353C305.259 303.059 305.264 302.747 305.188 302.451C305.112 302.154 304.958 301.883 304.742 301.667L299.864 296.783C299.54 296.471 299.105 296.3 298.655 296.307H277.72C277.606 296.296 277.49 296.296 277.375 296.307ZM235.851 354.312C235.539 354.379 235.253 354.532 235.024 354.754C234.795 354.975 234.633 355.257 234.556 355.566L231.75 366.717C231.688 366.968 231.683 367.229 231.736 367.482C231.789 367.734 231.899 367.971 232.057 368.175C232.215 368.379 232.417 368.544 232.648 368.659C232.879 368.773 233.132 368.833 233.39 368.835H246.728L213.664 463.364C213.578 463.619 213.554 463.89 213.594 464.156C213.633 464.422 213.735 464.675 213.891 464.894C214.047 465.114 214.252 465.293 214.49 465.417C214.728 465.542 214.992 465.608 215.261 465.611H263.39C263.751 465.616 264.105 465.506 264.4 465.296C264.695 465.086 264.916 464.788 265.03 464.444L268.181 454.287C268.259 454.031 268.276 453.76 268.23 453.496C268.185 453.233 268.078 452.983 267.918 452.769C267.758 452.554 267.551 452.38 267.311 452.261C267.072 452.142 266.808 452.081 266.541 452.082H255.663L288.382 356.56C288.467 356.305 288.491 356.033 288.452 355.767C288.413 355.501 288.311 355.248 288.155 355.029C287.999 354.81 287.794 354.631 287.556 354.506C287.318 354.382 287.054 354.315 286.785 354.312H236.196C236.081 354.301 235.965 354.301 235.851 354.312ZM388.999 354.658C388.629 354.735 388.295 354.932 388.05 355.22L378.035 366.544H362.108L351.489 355.523C351.332 355.36 351.144 355.231 350.937 355.142C350.729 355.053 350.506 355.006 350.28 355.004H312.252C311.903 355.005 311.563 355.113 311.277 355.314C310.991 355.515 310.774 355.799 310.655 356.128L307.159 366.588C307.073 366.843 307.049 367.114 307.089 367.38C307.128 367.647 307.23 367.899 307.386 368.119C307.542 368.338 307.747 368.517 307.985 368.642C308.223 368.766 308.487 368.832 308.756 368.835H318.943L287.26 462.326C287.174 462.581 287.15 462.853 287.19 463.119C287.229 463.385 287.331 463.638 287.487 463.857C287.643 464.076 287.848 464.255 288.086 464.38C288.324 464.505 288.588 464.571 288.857 464.574H329.345C329.695 464.573 330.035 464.465 330.321 464.264C330.606 464.063 330.823 463.779 330.943 463.45L334.05 454.33C334.136 454.075 334.16 453.803 334.12 453.537C334.081 453.271 333.979 453.018 333.823 452.799C333.668 452.58 333.462 452.401 333.224 452.276C332.986 452.152 332.722 452.085 332.453 452.082H325.374L345.575 388.415H382.136L359.086 462.369C359.008 462.625 358.991 462.896 359.037 463.16C359.082 463.424 359.189 463.673 359.349 463.887C359.509 464.102 359.716 464.276 359.956 464.395C360.195 464.514 360.459 464.576 360.726 464.574H399.79C400.122 464.571 400.446 464.472 400.722 464.287C400.998 464.103 401.214 463.842 401.344 463.536L404.841 455.151C404.942 454.895 404.98 454.618 404.951 454.343C404.922 454.069 404.827 453.806 404.675 453.576C404.522 453.347 404.316 453.158 404.074 453.026C403.832 452.893 403.562 452.822 403.287 452.817H396.208L416.754 388.069H451.545L428.15 462.369C428.071 462.625 428.055 462.896 428.1 463.16C428.146 463.424 428.253 463.673 428.413 463.887C428.572 464.102 428.78 464.276 429.019 464.395C429.259 464.514 429.523 464.576 429.79 464.574H472.696C473.04 464.576 473.377 464.474 473.662 464.282C473.947 464.089 474.167 463.814 474.293 463.493L477.789 454.373C477.883 454.116 477.914 453.839 477.878 453.567C477.843 453.296 477.743 453.036 477.586 452.812C477.429 452.587 477.221 452.403 476.978 452.276C476.735 452.149 476.466 452.083 476.192 452.082H467.689L493.544 368.014C493.629 367.753 493.65 367.475 493.605 367.204C493.56 366.933 493.45 366.677 493.285 366.458L485.257 355.652C485.093 355.444 484.882 355.277 484.643 355.165C484.403 355.052 484.14 354.997 483.875 355.004H453.185C452.952 355 452.721 355.044 452.506 355.133C452.29 355.223 452.096 355.355 451.933 355.523L442.265 366.155H425.344L415.33 355.177C415.168 355.009 414.973 354.877 414.758 354.788C414.542 354.698 414.311 354.654 414.078 354.658H389.345C389.23 354.646 389.114 354.646 388.999 354.658Z" fill="#CCCCCC" stroke="black" stroke-width="11.0576" stroke-miterlimit="10"/>
  <path d="M277.72 297.993L270.382 304.304L263.044 324.878L268.656 330.497H291.317L297.231 324.532L303.533 302.877L298.655 297.993H277.72ZM236.196 355.998L233.39 367.15H249.102L215.261 463.925H263.39L266.541 453.768H253.289L286.785 355.998H236.196ZM389.345 356.344L378.856 368.23H361.417L350.28 356.69H312.252L308.756 367.15H321.317L288.857 462.888H329.346L332.453 453.768H323.043L344.324 386.729H384.467L360.726 462.888H399.79L403.287 454.503H393.877L415.502 386.384H453.876L429.79 462.888H472.696L476.192 453.768H465.358L491.904 367.495L483.875 356.69H453.185L443.042 367.841H424.567L414.078 356.344H389.345Z" fill="#CCCCCC" stroke="black" stroke-width="1.3822" stroke-miterlimit="10"/>
</svg>
