<svg width="370" height="214" viewBox="0 0 370 214" fill="none" xmlns="http://www.w3.org/2000/svg">
<path d="M313.335 98.8702V59.1355L248.547 38.7095V78.4443L313.335 98.8702Z" fill="#111111"/>
<path d="M280.941 15.092L248.547 38.7096L313.335 59.1355L345.73 35.518L280.941 15.092Z" fill="#444444"/>
<path d="M313.335 59.1355L345.73 35.518V75.2528L313.335 98.8703V59.1355Z" fill="#333333"/>
<path d="M289.399 10.149C289.399 11.5591 286.399 12.7022 282.697 12.7022C278.994 12.7022 275.994 11.5591 275.994 10.149C275.994 8.73888 278.994 7.59576 282.697 7.59576C286.399 7.59576 289.399 8.73888 289.399 10.149Z" fill="#C4C4C4"/>
<path fill-rule="evenodd" clip-rule="evenodd" d="M276.037 10.2761H276.032V20.8982C276.032 22.3237 279.01 23.4792 282.684 23.4792C286.356 23.4792 289.335 22.3237 289.335 20.8982V10.2761H289.328C289.194 11.6556 286.271 12.7579 282.684 12.7579C279.095 12.7579 276.171 11.6556 276.037 10.2761Z" fill="#777777"/>
<path d="M341.261 26.0269C341.261 27.4812 338.296 28.66 334.639 28.66C330.981 28.66 328.016 27.4812 328.016 26.0269C328.016 24.5727 330.981 23.3939 334.639 23.3939C338.296 23.3939 341.261 24.5727 341.261 26.0269Z" fill="#C4C4C4"/>
<path fill-rule="evenodd" clip-rule="evenodd" d="M327.964 26.1447H327.959V36.7667C327.959 38.1922 330.937 39.3478 334.61 39.3478C338.284 39.3478 341.261 38.1922 341.261 36.7667V26.1447H341.257C341.123 27.5241 338.197 28.6265 334.61 28.6265C331.023 28.6265 328.098 27.5241 327.964 26.1447Z" fill="#777777"/>
<path d="M81.7884 157.435V117.7L17 97.2745V137.009L81.7884 157.435Z" fill="#111111"/>
<path d="M49.3942 73.657L17 97.2745L81.7884 117.7L114.183 94.083L49.3942 73.657Z" fill="#444444"/>
<path d="M81.7885 117.7L114.183 94.0829V133.818L81.7885 157.435V117.7Z" fill="#333333"/>
<path d="M84.98 99.3528C84.98 100.675 82.2293 101.746 78.8362 101.746C75.4431 101.746 72.6925 100.675 72.6925 99.3528C72.6925 98.0309 75.4431 96.9592 78.8362 96.9592C82.2293 96.9592 84.98 98.0309 84.98 99.3528Z" fill="#C4C4C4"/>
<path fill-rule="evenodd" clip-rule="evenodd" d="M72.6517 99.4513H72.6472V109.255C72.6472 110.57 75.3956 111.637 78.7858 111.637C82.1761 111.637 84.9245 110.57 84.9245 109.255V99.4513H84.92C84.796 100.724 82.0971 101.742 78.7858 101.742C75.4746 101.742 72.7757 100.724 72.6517 99.4513Z" fill="#777777"/>
<path d="M36.7876 84.8313C36.7876 86.1532 34.0369 87.2249 30.6439 87.2249C27.2508 87.2249 24.5001 86.1532 24.5001 84.8313C24.5001 83.5093 27.2508 82.4376 30.6439 82.4376C34.0369 82.4376 36.7876 83.5093 36.7876 84.8313Z" fill="#C4C4C4"/>
<path fill-rule="evenodd" clip-rule="evenodd" d="M24.5046 84.9627H24.5001V94.7663C24.5001 96.0819 27.2485 97.1484 30.6388 97.1484C34.0291 97.1484 36.7774 96.0819 36.7774 94.7663V84.9627H36.7729C36.6489 86.236 33.95 87.2533 30.6388 87.2533C27.3275 87.2533 24.6286 86.236 24.5046 84.9627Z" fill="#777777"/>
<path fill-rule="evenodd" clip-rule="evenodd" d="M293.426 26.9552C294.24 26.2051 295 25.0878 295 23.6424V7.35746C295 5.91223 294.24 4.79491 293.426 4.04483C292.615 3.29765 291.578 2.73691 290.5 2.31667C288.331 1.47039 285.502 1 282.5 1C279.498 1 276.669 1.47039 274.5 2.31667C273.422 2.73691 272.385 3.29765 271.574 4.04483C270.76 4.79491 270 5.91223 270 7.35746V8.77177C248.892 21.0882 234.699 31.2952 224.68 41.7424C214.482 52.3751 208.693 63.1663 204.25 76.4479C198.601 93.3298 197.054 112.614 195.6 130.747C195.147 136.394 194.703 141.93 194.147 147.247C192.962 158.566 191.282 168.923 188.047 177.61C184.827 186.258 180.12 193.109 172.948 197.618C167.16 201.257 163.646 200.987 161.224 199.327C158.421 197.405 156.089 193.047 154.208 186.261C152.367 179.614 151.11 171.239 150.008 162.012C149.534 158.052 149.085 153.89 148.628 149.659C148.037 144.18 147.433 138.587 146.749 133.171C145.526 123.49 144.006 113.991 141.717 105.741C139.44 97.5364 136.331 90.2898 131.76 85.341C127.055 80.2481 120.883 77.6916 113.029 78.8505C105.874 79.9064 97.4763 84.0197 87.5115 91.6499C87.2234 91.509 86.9285 91.3809 86.6313 91.2643C84.5561 90.45 81.8572 90 79 90C76.1428 90 73.4439 90.45 71.3687 91.2643C70.339 91.6683 69.3367 92.211 68.5496 92.941C67.7606 93.673 67 94.784 67 96.2375C67 96.2643 67.0002 96.2908 67.0007 96.3173C67.0002 96.3385 67 96.36 67 96.3813V111.763C67 113.216 67.7606 114.327 68.5496 115.059C69.3367 115.789 70.339 116.332 71.3687 116.736C73.4439 117.55 76.1428 118 79 118C81.8572 118 84.5561 117.55 86.6313 116.736C87.661 116.332 88.6633 115.789 89.4504 115.059C90.2394 114.327 91 113.216 91 111.763V96.3813L90.9998 96.3485L90.9993 96.3173C90.9998 96.2908 91 96.2643 91 96.2375C91 95.9265 90.9652 95.6311 90.9027 95.3518C100.391 88.1409 107.875 84.6651 113.759 83.7969C119.911 82.8891 124.456 84.8033 128.087 88.7338C131.851 92.8083 134.696 99.1379 136.899 107.078C139.089 114.972 140.574 124.184 141.788 133.798C142.475 139.24 143.063 144.69 143.645 150.084C144.1 154.302 144.551 158.487 145.043 162.606C146.148 171.855 147.439 180.555 149.39 187.596C151.302 194.498 154.009 200.442 158.397 203.45C163.165 206.72 168.996 206.009 175.61 201.851C183.975 196.592 189.255 188.696 192.733 179.355C196.196 170.054 197.925 159.182 199.119 147.767C199.705 142.171 200.165 136.45 200.628 130.688L200.628 130.685C202.076 112.683 203.556 94.2798 208.991 78.0344C213.248 65.3123 218.697 55.2045 228.288 45.2033C237.442 35.6592 250.444 26.1322 270 14.5703V23.6424C270 25.0878 270.76 26.2051 271.574 26.9552C272.385 27.7024 273.422 28.2632 274.5 28.6833C276.669 29.5297 279.498 30 282.5 30C285.502 30 288.331 29.5297 290.5 28.6833C291.578 28.2632 292.615 27.7024 293.426 26.9552ZM289.81 22.996C290.34 22.5048 290.835 21.7731 290.835 20.8267V10.163C290.835 9.21662 290.34 8.48497 289.81 7.99381C289.282 7.50454 288.607 7.13736 287.905 6.86218C286.493 6.30802 284.651 6 282.696 6C280.742 6 278.9 6.30802 277.488 6.86218C276.786 7.13736 276.111 7.50454 275.582 7.99381C275.053 8.48497 274.558 9.21662 274.558 10.163V20.8267C274.558 21.7731 275.053 22.5048 275.582 22.996C276.111 23.4852 276.786 23.8524 277.488 24.1275C278.9 24.6817 280.742 24.9897 282.696 24.9897C284.651 24.9897 286.493 24.6817 287.905 24.1275C288.607 23.8524 289.282 23.4852 289.81 22.996ZM71.0968 99.4366C71.0968 99.4231 71.097 99.4093 71.0973 99.3958C71.097 99.3789 71.0968 99.362 71.0968 99.3449C71.0968 98.4171 71.5873 97.7079 72.0962 97.2407C72.6039 96.7747 73.2503 96.4283 73.9145 96.1704C75.2528 95.6507 76.9935 95.3634 78.8363 95.3634C80.6791 95.3634 82.4198 95.6507 83.7582 96.1704C84.4223 96.4283 85.0688 96.7747 85.5764 97.2407C86.0853 97.7079 86.5758 98.4171 86.5758 99.3449C86.5758 99.362 86.5757 99.3789 86.5753 99.3958C86.5757 99.4093 86.5758 99.4231 86.5758 99.4366V109.255C86.5758 110.182 86.0853 110.892 85.5764 111.359C85.0688 111.825 84.4223 112.171 83.7582 112.429C82.4198 112.949 80.6791 113.236 78.8363 113.236C76.9935 113.236 75.2528 112.949 73.9145 112.429C73.2503 112.171 72.6039 111.825 72.0962 111.359C71.5873 110.892 71.0968 110.182 71.0968 109.255V99.4366Z" fill="#F85C37"/>
<path fill-rule="evenodd" clip-rule="evenodd" d="M107.068 60.365C87.6649 52.8096 64.6636 58.7347 39.6297 80.5079L39.6441 80.5209C40.3345 81.1483 41 82.1006 41 83.3464C41 83.3694 40.9998 83.3921 40.9993 83.4148C40.9998 83.433 41 83.4514 41 83.4697V96.6536C41 97.8994 40.3345 98.8517 39.6441 99.4791C38.9554 100.105 38.0784 100.57 37.1774 100.916C35.3616 101.614 33.0001 102 30.5 102C28 102 25.6385 101.614 23.8226 100.916C22.9215 100.57 22.0446 100.105 21.3558 99.4791C20.6654 98.8517 20 97.8994 20 96.6536V83.4697C20 83.4514 20.0002 83.433 20.0007 83.4148C20.0002 83.3921 20 83.3694 20 83.3464C20 82.1006 20.6654 81.1483 21.3558 80.5209C22.0446 79.8951 22.9215 79.4299 23.8226 79.0836C25.6385 78.3857 28 78 30.5 78C32.7577 78 34.9024 78.3146 36.6343 78.8895C62.4546 56.0916 87.0137 49.1311 108.226 57.391C129.495 65.6729 145.02 89.4156 150.153 127.14C151.503 137.064 152.425 146.747 153.273 155.665L153.291 155.855C153.443 157.447 153.592 159.014 153.741 160.553C154.734 170.805 155.713 179.796 157.27 186.817C158.048 190.323 158.956 193.277 160.05 195.616C161.147 197.964 162.385 199.596 163.765 200.586C166.332 202.426 170.107 202.475 176.271 198.667C191.38 189.34 195.89 170.386 198.322 147.543C198.894 142.169 199.351 136.59 199.814 130.912L199.814 130.909C201.296 112.769 202.862 93.6107 208.584 76.8149C209.449 74.2784 210.406 72.3372 211.536 71.0607C212.722 69.7199 214.214 69.0068 215.92 69.321C217.45 69.6026 218.814 70.6629 220.018 71.9491C221.254 73.2715 222.515 75.045 223.806 77.1128C226.176 80.9097 228.784 85.926 231.658 91.4535L231.694 91.5217C231.785 91.6974 231.877 91.8735 231.969 92.0502C232.122 92.3447 232.276 92.6405 232.431 92.9377C233.37 94.742 234.338 96.5971 235.339 98.4835L368.843 146.691V166.245L304.032 142.649C299.944 144.958 296.005 146.526 292.206 147.434C284.503 149.276 277.474 148.384 271.094 145.607C260.745 141.104 252.171 131.674 245 121.156L234 117.152V102.747C232.456 99.8872 230.991 97.0852 229.599 94.411L229.374 93.9792C229.21 93.6619 229.046 93.3467 228.882 93.0336L228.878 93.0259L228.878 93.0249C225.967 87.4271 223.406 82.5008 221.098 78.8028C219.85 76.8033 218.717 75.2305 217.686 74.1295C216.623 72.9924 215.846 72.5526 215.342 72.4597C215.013 72.3994 214.579 72.4372 213.927 73.1753C213.216 73.9778 212.423 75.4433 211.605 77.8442C206.024 94.2285 204.502 112.817 203.024 130.873L203.021 130.918C202.551 136.656 202.086 142.339 201.496 147.881C199.078 170.58 194.532 191.145 177.948 201.383C171.417 205.416 166.074 206.166 161.907 203.18C159.92 201.757 158.387 199.595 157.159 196.968C155.928 194.335 154.958 191.134 154.154 187.508C152.549 180.267 151.554 171.083 150.564 160.861C150.409 159.251 150.253 157.613 150.095 155.953C149.246 147.034 148.331 137.425 146.99 127.57C141.93 90.3721 126.776 68.039 107.068 60.365ZM250.272 123.076C256.681 131.762 263.98 139.031 272.367 142.681C278.149 145.197 284.471 146.003 291.464 144.33C294.19 143.679 297.032 142.646 299.995 141.179L250.272 123.076ZM22.9044 84.9151C22.9044 84.9015 22.9046 84.8878 22.9049 84.8742C22.9046 84.8573 22.9044 84.8404 22.9044 84.8233C22.9044 83.8955 23.3949 83.1864 23.9038 82.7191C24.4115 82.2532 25.0579 81.9067 25.722 81.6488C27.0605 81.1291 28.8012 80.8419 30.6439 80.8419C32.4867 80.8419 34.2274 81.1291 35.5658 81.6488C36.2299 81.9067 36.8764 82.2532 37.384 82.7191C37.8929 83.1864 38.3834 83.8955 38.3834 84.8233C38.3834 84.8404 38.3833 84.8573 38.383 84.8742L38.3833 84.8938L38.3834 84.9151V94.7331C38.3834 95.6609 37.8929 96.37 37.384 96.8373C36.8764 97.3032 36.2299 97.6497 35.5658 97.9076C34.2274 98.4273 32.4867 98.7145 30.6439 98.7145C28.8012 98.7145 27.0605 98.4273 25.722 97.9076C25.0579 97.6497 24.4115 97.3032 23.9038 96.8373C23.3949 96.37 22.9044 95.6609 22.9044 94.7331V84.9151Z" fill="url(#paint0_linear)"/>
<path d="M25.0992 126.341L21.6854 119.528L20.1321 119.019V124.713L19 124.342V111L22.993 112.308C23.4201 112.448 23.8208 112.666 24.1953 112.962C24.5697 113.253 24.8973 113.593 25.1781 113.982C25.459 114.372 25.6784 114.794 25.8363 115.249C26.0002 115.7 26.0821 116.152 26.0821 116.605V117.684C26.0821 118.137 26.0002 118.538 25.8363 118.888C25.6784 119.233 25.459 119.508 25.1781 119.714C24.8973 119.92 24.5697 120.048 24.1953 120.099C23.8208 120.144 23.4201 120.096 22.993 119.956L26.4068 126.769L25.0992 126.341ZM24.95 116.234C24.95 115.936 24.8973 115.643 24.792 115.354C24.6867 115.059 24.5434 114.786 24.362 114.534C24.1806 114.276 23.9671 114.051 23.7214 113.859C23.4815 113.668 23.2211 113.527 22.9403 113.435L20.1321 112.515V117.875L22.9403 118.795C23.2211 118.887 23.4815 118.916 23.7214 118.883C23.9671 118.852 24.1806 118.77 24.362 118.637C24.5434 118.498 24.6867 118.319 24.792 118.099C24.8973 117.873 24.95 117.611 24.95 117.313V116.234ZM35.4721 126.65C35.4721 127.103 35.3903 127.501 35.2264 127.844C35.0684 128.19 34.849 128.465 34.5682 128.671C34.2874 128.876 33.9599 129.005 33.5853 129.056C33.211 129.101 32.8101 129.053 32.3831 128.913L31.4879 128.62C31.0608 128.48 30.6571 128.264 30.2769 127.972C29.9025 127.675 29.5749 127.332 29.294 126.943C29.0132 126.553 28.7908 126.133 28.6271 125.682C28.4691 125.233 28.3902 124.783 28.3902 124.33V114.076L29.5221 114.447V124.701C29.5221 124.998 29.5749 125.295 29.6801 125.59C29.7854 125.879 29.9288 126.152 30.1102 126.41C30.2973 126.664 30.5109 126.885 30.7509 127.076C30.9965 127.268 31.2598 127.41 31.5406 127.502L32.3303 127.761C32.6112 127.853 32.8716 127.882 33.1114 127.849C33.3572 127.818 33.5708 127.736 33.752 127.603C33.9334 127.464 34.0769 127.285 34.1821 127.065C34.2874 126.839 34.3401 126.577 34.3401 126.279V116.026L35.4721 116.397V126.65ZM44.6604 132.749L39.4125 121.316L39.3072 120.705V130.996L38.175 130.625V117.282L38.7631 117.475L44.011 128.917L44.1252 129.522V119.232L45.2571 119.602V132.945L44.6604 132.749ZM54.6297 136.015L49.3818 124.583L49.2765 123.971V134.262L48.1443 133.891V120.548L48.7324 120.741L53.9803 132.183L54.0943 132.788V122.498L55.2265 122.869V136.211L54.6297 136.015ZM58.1137 137.157V123.815L59.2458 124.186V137.528L58.1137 137.157ZM68.6183 140.599L63.3704 129.166L63.2652 128.554V138.845L62.133 138.474V125.132L62.7209 125.324L67.9688 136.766L68.083 137.371V127.081L69.2151 127.452V140.794L68.6183 140.599ZM79 144L78.6402 143.882L77.9822 142.596C77.707 142.891 77.3737 143.089 76.9817 143.19C76.5896 143.285 76.1538 143.254 75.674 143.096L75.0158 142.881C74.5887 142.741 74.1851 142.525 73.8048 142.233C73.4305 141.936 73.1028 141.593 72.8219 141.204C72.5411 140.814 72.3187 140.394 72.155 139.943C71.9971 139.494 71.9181 139.044 71.9181 138.591V131.426C71.9181 130.973 71.9971 130.574 72.155 130.229C72.3187 129.886 72.5411 129.611 72.8219 129.406C73.1028 129.2 73.4305 129.075 73.8048 129.03C74.1851 128.981 74.5887 129.026 75.0158 129.166L75.911 129.46C76.3381 129.599 76.7389 129.818 77.1132 130.114C77.4878 130.404 77.8153 130.744 78.0961 131.134C78.3769 131.523 78.5963 131.943 78.7543 132.391C78.9182 132.842 79 133.294 79 133.747V134.286L77.868 134.101V133.376C77.868 133.078 77.8153 132.785 77.71 132.496C77.6048 132.201 77.4613 131.928 77.2799 131.676C77.0987 131.424 76.8852 131.202 76.6393 131.01C76.3995 130.82 76.1391 130.679 75.8582 130.587L75.0685 130.328C74.7877 130.236 74.5245 130.205 74.2788 130.237C74.0388 130.27 73.8252 130.352 73.6381 130.483C73.4567 130.615 73.3133 130.795 73.208 131.021C73.1028 131.241 73.05 131.5 73.05 131.797V138.962C73.05 139.259 73.1028 139.556 73.208 139.851C73.3133 140.14 73.4567 140.413 73.6381 140.671C73.8252 140.924 74.0388 141.146 74.2788 141.337C74.5245 141.529 74.7877 141.671 75.0685 141.763L75.8582 142.022C76.1391 142.114 76.3995 142.143 76.6393 142.11C76.8852 142.079 77.0987 141.997 77.2799 141.864C77.4613 141.725 77.6048 141.546 77.71 141.326C77.8153 141.1 77.868 140.838 77.868 140.54V137.758L75.8582 137.1V135.955L79 136.984V144Z" fill="white"/>
<path d="M265.101 69.2809C265.101 69.9859 264.974 70.6054 264.716 71.1396C264.47 71.677 264.123 72.1059 263.685 72.4259C263.243 72.7462 262.725 72.9447 262.129 73.0209C261.543 73.0906 260.915 73.0167 260.245 72.7987L254 70.7671V50L260.245 52.0317C260.915 52.2494 261.543 52.589 262.129 53.0502C262.725 53.5048 263.243 54.0354 263.685 54.642C264.123 55.2488 264.47 55.906 264.716 56.6143C264.974 57.3157 265.101 58.0187 265.101 58.7237V69.2809ZM263.326 58.1462C263.326 57.6829 263.243 57.2262 263.08 56.7768C262.915 56.3177 262.683 55.8906 262.39 55.4959C262.106 55.0943 261.771 54.744 261.386 54.445C261.01 54.149 260.604 53.9293 260.162 53.786L255.775 52.3585V69.5632L260.162 70.9907C260.604 71.134 261.01 71.1799 261.386 71.1283C261.771 71.08 262.106 70.9522 262.39 70.7454C262.683 70.5417 262.915 70.2685 263.08 69.9265C263.243 69.5748 263.326 69.167 263.326 68.7037V58.1462ZM269.326 75.7525V54.9851L280.427 58.5967V60.3781L271.1 57.3439V65.0627L278.652 67.5197V69.301L271.1 66.8441V74.5486L280.427 77.5828V79.3641L269.326 75.7525ZM291.229 78.0401L284.98 76.0082L283.689 80.4247L281.846 79.825L287.623 60.9371L288.559 61.2414L294.366 83.8972L292.535 83.3023L291.229 78.0401ZM285.463 74.3837L290.76 76.1066L288.159 65.6882L288.106 64.9026L288.05 65.6524L285.463 74.3837ZM308 83.2346C308 83.9393 307.87 84.5589 307.615 85.0934C307.366 85.6308 307.022 86.0594 306.581 86.3797C306.142 86.7 305.624 86.8981 305.028 86.9747C304.439 87.0444 303.811 86.9702 303.141 86.7525L296.896 84.7209V63.9535L303.141 65.9854C303.811 66.2031 304.439 66.5427 305.028 67.0039C305.624 67.4586 306.142 67.9892 306.581 68.5957C307.022 69.2023 307.366 69.8598 307.615 70.5678C307.87 71.2692 308 71.9724 308 72.6771V83.2346ZM306.225 72.1C306.225 71.6364 306.142 71.1799 305.977 70.7303C305.811 70.2712 305.582 69.8444 305.289 69.4496C305.005 69.048 304.67 68.6978 304.285 68.3988C303.909 68.1025 303.5 67.883 303.058 67.7398L298.671 66.3123V83.5167L303.058 84.9445C303.5 85.0874 303.909 85.1334 304.285 85.0821C304.67 85.0335 305.005 84.9059 305.289 84.6992C305.582 84.4952 305.811 84.2223 305.977 83.88C306.142 83.5283 306.225 83.1207 306.225 82.6572V72.1Z" fill="white"/>
<path d="M279.767 20.362V20.612H280.017H285.717H285.967V20.362V19.4995V19.2495H285.717H283.57V10.3058V10.0558H283.32H282.416H282.365L282.319 10.0754L279.92 11.0852L279.767 11.1496V11.3156V12.1782V12.5547L280.114 12.4086L282.166 11.5449V19.2495H280.017H279.767V19.4995V20.362Z" fill="black" stroke="black" stroke-width="0.5"/>
<path d="M78.0618 108.084C78.6598 107.514 79.2059 106.925 79.7001 106.318L79.7004 106.317C79.9667 105.989 80.2254 105.64 80.4768 105.27C80.7355 104.897 80.9635 104.51 81.1605 104.112C81.363 103.711 81.5252 103.303 81.6463 102.886C81.7744 102.462 81.839 102.038 81.839 101.616C81.839 101.187 81.7694 100.795 81.6246 100.443C81.4872 100.092 81.2946 99.7878 81.0454 99.5333L81.0454 99.5332C80.7962 99.2789 80.5029 99.0846 80.1678 98.9504C79.8372 98.8161 79.4849 98.75 79.1135 98.75H78.6858C78.3122 98.75 77.9582 98.8217 77.6264 98.9666C77.2987 99.105 77.0102 99.2981 76.7628 99.5455C76.5157 99.7926 76.3207 100.081 76.1776 100.407L76.1776 100.407L76.1763 100.411C76.0364 100.742 75.9673 101.096 75.9673 101.468V101.728V101.94L76.1772 101.975L77.0818 102.122L77.372 102.169V101.875V101.468C77.372 101.276 77.4078 101.102 77.4771 100.945L77.4771 100.945L77.478 100.943C77.5501 100.774 77.6471 100.631 77.7686 100.509C77.8908 100.387 78.0328 100.29 78.1962 100.218C78.3596 100.148 78.5359 100.113 78.7278 100.113H79.0715C79.2515 100.113 79.4217 100.144 79.5837 100.208L79.5836 100.208L79.5906 100.21C79.7531 100.268 79.8954 100.357 80.0195 100.477L78.0618 108.084ZM78.0618 108.084H81.6591H81.9091V108.334V109.196V109.446H81.6591H76H75.75V109.196V108.481V108.363L75.8411 108.288C76.7062 107.576 77.4775 106.839 78.1552 106.078C78.445 105.751 78.7282 105.404 79.0048 105.035C79.2786 104.67 79.5226 104.296 79.7367 103.913C79.9489 103.53 80.1174 103.142 80.2431 102.752L80.2436 102.751C80.3716 102.362 80.4344 101.984 80.4344 101.616C80.4344 101.346 80.3937 101.122 80.3194 100.938C80.2418 100.746 80.1408 100.594 80.0195 100.477L78.0618 108.084Z" fill="black" stroke="black" stroke-width="0.5"/>
<path d="M32.1087 89.2039C32.1926 89.1411 32.2728 89.0738 32.3491 89.0019L32.3491 89.0019L32.3518 88.9993C32.5254 88.8307 32.6743 88.6438 32.7976 88.4386C32.9264 88.2322 33.0241 88.0105 33.091 87.7746C33.0912 87.7741 33.0913 87.7735 33.0915 87.773L32.8509 87.7049L32.1087 89.2039ZM32.1087 89.2039C32.1932 89.2674 32.2738 89.3363 32.3504 89.4106C32.5248 89.5751 32.6741 89.7601 32.7976 89.9656C32.9267 90.1724 33.0243 90.3964 33.091 90.6365C33.1634 90.8757 33.1991 91.1261 33.1991 91.3866V92.0739C33.1991 92.4474 33.1273 92.8014 32.9825 93.1332C32.8441 93.4608 32.6509 93.7494 32.4036 93.9967C32.1566 94.2438 31.8685 94.439 31.5415 94.582L31.5386 94.5833L31.5385 94.5833C31.207 94.7232 30.8535 94.7922 30.4806 94.7922H30.0529C29.68 94.7922 29.3247 94.7232 28.9892 94.5838L28.9849 94.582L28.9849 94.582C28.6579 94.439 28.37 94.2437 28.1229 93.9967L28.1229 93.9967C27.8758 93.7497 27.6807 93.4616 27.5377 93.1347L27.5364 93.1317L27.5364 93.1317C27.3965 92.8002 27.3274 92.4467 27.3274 92.0739V91.8144V91.6002L27.5391 91.5673L28.4437 91.4271L28.732 91.3824V91.6741V92.0739C28.732 92.2657 28.7677 92.442 28.8376 92.6055C28.9093 92.7684 29.0061 92.9128 29.1287 93.0401C29.2559 93.1627 29.4004 93.2595 29.5633 93.3311C29.7267 93.401 29.9031 93.4367 30.0949 93.4367H30.4386C30.6309 93.4367 30.8044 93.4008 30.9622 93.3315L30.9642 93.3307L30.9642 93.3307C31.1319 93.2589 31.2753 93.1623 31.3964 93.0416C31.5197 92.9139 31.617 92.769 31.6888 92.6055C31.7588 92.4421 31.7944 92.2658 31.7944 92.0739V91.2393C31.7944 91.0469 31.7586 90.8734 31.6893 90.7158L31.6884 90.7136L31.6884 90.7136C31.6163 90.5453 31.5193 90.4015 31.3978 90.28C31.2764 90.1586 31.1325 90.0616 30.9642 89.9895L30.9621 89.9885L30.9621 89.9885C30.8045 89.9192 30.631 89.8834 30.4386 89.8834H29.7653H29.5153V89.6334V88.7709V88.5209H29.7653H30.4386C30.6309 88.5209 30.8043 88.485 30.9621 88.4157L30.9642 88.4147L30.9642 88.4147C31.1325 88.3426 31.2764 88.2456 31.3978 88.1242C31.5201 88.002 31.617 87.8599 31.6888 87.6965C31.7587 87.5334 31.7944 87.3569 31.7944 87.1649V86.6741C31.7944 86.4817 31.7586 86.3082 31.6893 86.1506L31.6883 86.1484L31.6884 86.1484C31.6163 85.98 31.5193 85.8363 31.3978 85.7148C31.2764 85.5934 31.1325 85.4963 30.9641 85.424L30.9622 85.4233L30.9623 85.4233C30.8044 85.354 30.6308 85.3181 30.4386 85.3181H30.0949C29.9031 85.3181 29.7267 85.3538 29.5633 85.4237C29.3997 85.4957 29.2548 85.593 29.1272 85.7162C29.0064 85.8374 28.9099 85.9806 28.838 86.1484L28.8372 86.1505L28.8372 86.1505C28.7679 86.3082 28.732 86.4818 28.732 86.6741V87.0808V87.3748L28.4418 87.3276L27.5372 87.1803L27.3274 87.1461V86.9335V86.6741C27.3274 86.3011 27.3965 85.9476 27.5364 85.6161L27.5377 85.613L27.5377 85.6131C27.6807 85.2861 27.8758 84.9982 28.1229 84.7511L28.1229 84.751C28.3705 84.5035 28.6592 84.3105 28.987 84.172C29.3229 84.0274 29.679 83.9556 30.0529 83.9556H30.4806C30.8542 83.9556 31.2083 84.0273 31.5401 84.1723C31.8676 84.3107 32.1562 84.5037 32.4036 84.751L32.4036 84.7511C32.6509 84.9985 32.844 85.2869 32.9825 85.6146" fill="black" stroke="black" stroke-width="0.5"/>
<path d="M255.623 119.04L255.042 120.68L254.19 120.378L254.769 118.739L250.961 117.391L251.105 116.988L257.948 111.04L258.396 111.199L255.91 118.227L256.724 118.515L256.436 119.328L255.623 119.04ZM256.717 113.231L252.445 117.001L255.058 117.925L256.717 113.231ZM257.747 121.637L258.107 120.618L259.125 120.979L258.765 121.997L257.747 121.637ZM269.752 125.884L272.051 119.385L271.848 119.768L267.492 125.084L267.042 124.925L266.976 118.044L267.066 117.622L264.768 124.12L263.914 123.819L267.269 114.338L267.712 114.495L267.837 123.287L267.739 123.647L267.889 123.306L273.51 116.546L273.96 116.705L270.605 126.186L269.752 125.884ZM272.774 126.953L276.128 117.472L281.463 119.36L281.176 120.173L276.693 118.587L275.445 122.111L279.076 123.395L278.788 124.208L275.158 122.924L273.913 126.441L278.396 128.027L278.109 128.84L272.774 126.953ZM285.109 121.565L282.042 130.232L281.19 129.93L284.256 121.263L281.994 120.463L282.283 119.65L287.658 121.552L287.369 122.365L285.109 121.565ZM289.593 130.419L286.592 129.357L285.189 131.345L284.303 131.032L290.434 122.534L290.883 122.693L290.319 133.16L289.44 132.849L289.593 130.419ZM287.11 128.626L289.656 129.526L289.952 124.714L290.05 124.355L289.9 124.696L287.11 128.626ZM291.397 133.542L294.751 124.061L295.603 124.363L292.538 133.03L296.166 134.314L295.879 135.128L291.397 133.542ZM305.551 138.549L305.28 138.453L305.053 137.518C304.75 137.718 304.421 137.847 304.069 137.906C303.718 137.96 303.36 137.923 303 137.795L302.503 137.62C302.181 137.506 301.898 137.339 301.654 137.118C301.415 136.895 301.228 136.64 301.091 136.354C300.955 136.068 300.874 135.762 300.852 135.436C300.831 135.112 300.879 134.789 300.992 134.467L302.794 129.376C302.907 129.055 303.075 128.774 303.293 128.534C303.517 128.295 303.77 128.108 304.058 127.971C304.343 127.834 304.65 127.756 304.973 127.737C305.304 127.715 305.629 127.761 305.95 127.875L306.625 128.113C306.947 128.227 307.227 128.396 307.466 128.619C307.705 128.838 307.894 129.09 308.031 129.377C308.167 129.663 308.245 129.969 308.264 130.293C308.288 130.618 308.243 130.942 308.128 131.264L307.993 131.647L307.094 131.478L307.276 130.962C307.351 130.751 307.38 130.54 307.366 130.332C307.351 130.119 307.3 129.919 307.212 129.734C307.123 129.549 307.002 129.385 306.844 129.24C306.692 129.097 306.509 128.987 306.298 128.913L305.703 128.702C305.491 128.627 305.278 128.597 305.066 128.611C304.857 128.626 304.658 128.677 304.469 128.764C304.284 128.852 304.118 128.975 303.975 129.132C303.831 129.284 303.721 129.466 303.646 129.678L301.846 134.769C301.771 134.98 301.74 135.193 301.755 135.406C301.769 135.615 301.82 135.814 301.908 136.003C302.001 136.189 302.123 136.354 302.275 136.498C302.433 136.643 302.617 136.752 302.829 136.827L303.424 137.038C303.635 137.112 303.845 137.142 304.054 137.127C304.267 137.113 304.466 137.062 304.651 136.974C304.838 136.881 305.002 136.758 305.146 136.606C305.291 136.449 305.4 136.264 305.475 136.053L306.175 134.076L304.661 133.54L304.948 132.727L307.314 133.565L305.551 138.549ZM312.043 140.846L310.903 135.89L309.734 135.476L308.302 139.522L307.449 139.221L310.803 129.74L313.811 130.805C314.133 130.918 314.412 131.087 314.652 131.31C314.891 131.529 315.08 131.781 315.217 132.068C315.352 132.354 315.431 132.662 315.448 132.99C315.472 133.316 315.426 133.64 315.313 133.962L315.041 134.728C314.928 135.05 314.757 135.332 314.534 135.575C314.315 135.815 314.061 136.004 313.776 136.14C313.489 136.277 313.182 136.357 312.857 136.381C312.533 136.4 312.21 136.353 311.888 136.239L313.029 141.195L312.043 140.846ZM314.459 133.66C314.534 133.448 314.564 133.238 314.548 133.029C314.535 132.816 314.484 132.617 314.395 132.432C314.309 132.243 314.187 132.076 314.029 131.931C313.878 131.788 313.694 131.679 313.484 131.604L311.368 130.855L310.021 134.663L312.137 135.412C312.348 135.487 312.558 135.516 312.767 135.501C312.979 135.487 313.179 135.436 313.364 135.348C313.551 135.255 313.715 135.132 313.859 134.98C314.004 134.823 314.114 134.638 314.187 134.427L314.459 133.66ZM320.634 141.416C320.521 141.738 320.352 142.018 320.129 142.256C319.91 142.496 319.658 142.684 319.371 142.821C319.085 142.958 318.779 143.038 318.453 143.062C318.129 143.081 317.805 143.034 317.484 142.92L316.809 142.681C316.489 142.567 316.205 142.4 315.96 142.18C315.723 141.957 315.534 141.702 315.397 141.415C315.261 141.129 315.182 140.823 315.158 140.497C315.139 140.173 315.185 139.85 315.3 139.528L317.1 134.438C317.215 134.116 317.381 133.835 317.599 133.595C317.823 133.357 318.076 133.169 318.364 133.033C318.649 132.896 318.956 132.818 319.28 132.799C319.61 132.777 319.935 132.823 320.258 132.936L320.931 133.175C321.254 133.289 321.533 133.457 321.772 133.68C322.012 133.899 322.2 134.152 322.337 134.438C322.474 134.725 322.551 135.03 322.57 135.354C322.594 135.68 322.549 136.004 322.436 136.325L320.634 141.416ZM321.582 136.024C321.657 135.812 321.688 135.602 321.672 135.393C321.657 135.18 321.606 134.981 321.518 134.796C321.431 134.611 321.308 134.446 321.15 134.301C320.998 134.158 320.816 134.049 320.604 133.974L320.009 133.764C319.798 133.689 319.586 133.658 319.372 133.672C319.163 133.687 318.964 133.739 318.775 133.825C318.59 133.914 318.424 134.036 318.281 134.193C318.137 134.346 318.029 134.528 317.953 134.74L316.152 139.83C316.077 140.042 316.047 140.254 316.061 140.467C316.075 140.676 316.126 140.875 316.214 141.064C316.307 141.251 316.43 141.416 316.581 141.559C316.739 141.704 316.923 141.814 317.135 141.889L317.73 142.099C317.941 142.174 318.151 142.204 318.36 142.188C318.573 142.174 318.772 142.123 318.957 142.035C319.144 141.942 319.308 141.82 319.452 141.667C319.597 141.51 319.707 141.326 319.782 141.114L321.582 136.024ZM327.866 143.975C327.753 144.296 327.584 144.577 327.362 144.815C327.142 145.055 326.89 145.243 326.604 145.38C326.317 145.517 326.011 145.597 325.685 145.621C325.361 145.64 325.039 145.592 324.716 145.479L324.043 145.24C323.721 145.126 323.438 144.959 323.192 144.739C322.955 144.516 322.766 144.261 322.631 143.974C322.493 143.688 322.414 143.382 322.39 143.056C322.371 142.732 322.418 142.409 322.532 142.087L325.109 134.802L325.963 135.104L323.384 142.389C323.311 142.601 323.279 142.813 323.293 143.026C323.309 143.235 323.36 143.434 323.446 143.623C323.539 143.81 323.662 143.975 323.815 144.118C323.971 144.263 324.156 144.373 324.367 144.447L324.962 144.658C325.174 144.733 325.383 144.763 325.592 144.747C325.806 144.733 326.004 144.682 326.189 144.594C326.376 144.501 326.542 144.379 326.684 144.226C326.829 144.069 326.939 143.885 327.014 143.673L329.591 136.388L330.445 136.689L327.866 143.975ZM334.012 148.618L332.501 140.318L332.566 139.88L329.979 147.192L329.127 146.89L332.481 137.41L332.923 137.566L334.433 145.874L334.376 146.307L336.962 138.995L337.816 139.297L334.462 148.778L334.012 148.618ZM342.795 149.108C342.682 149.429 342.512 149.709 342.289 149.948C342.07 150.188 341.818 150.376 341.533 150.513C341.245 150.649 340.937 150.729 340.607 150.751C340.283 150.77 339.961 150.723 339.638 150.609L336.637 149.547L339.991 140.067L342.993 141.129C343.314 141.243 343.594 141.411 343.832 141.634C344.076 141.854 344.268 142.108 344.405 142.394C344.541 142.681 344.619 142.988 344.636 143.317C344.659 143.643 344.614 143.966 344.501 144.288L342.795 149.108ZM343.647 143.986C343.722 143.775 343.752 143.565 343.736 143.356C343.724 143.143 343.669 142.943 343.577 142.756C343.491 142.567 343.368 142.4 343.211 142.255C343.058 142.112 342.876 142.003 342.666 141.928L340.556 141.182L337.778 149.036L339.886 149.782C340.098 149.857 340.309 149.886 340.516 149.871C340.73 149.857 340.929 149.806 341.115 149.718C341.303 149.631 341.47 149.511 341.612 149.359C341.758 149.202 341.868 149.017 341.943 148.806L343.647 143.986Z" fill="white"/>
<defs>
<linearGradient id="paint0_linear" x1="47.5" y1="106" x2="317" y2="147" gradientUnits="userSpaceOnUse">
<stop/>
<stop offset="1" stop-color="#333333"/>
</linearGradient>
</defs>
</svg>
