<?xml version="1.0" standalone="no"?>
<!DOCTYPE svg PUBLIC "-//W3C//DTD SVG 20010904//EN"
 "http://www.w3.org/TR/2001/REC-SVG-20010904/DTD/svg10.dtd">
<svg version="1.0" xmlns="http://www.w3.org/2000/svg"
 width="700.000000pt" height="700.000000pt" viewBox="0 0 700.000000 700.000000"
 preserveAspectRatio="xMidYMid meet">
<metadata>
Created by potrace 1.14, written by Peter Selinger 2001-2017
</metadata>
<g transform="translate(0.000000,700.000000) scale(0.100000,-0.100000)"
fill="#000000" stroke="none">
<path d="M3311 5939 c-355 -40 -682 -166 -983 -379 -95 -67 -339 -294 -337
-314 0 -6 43 -48 96 -94 l95 -83 101 98 c256 248 531 399 852 469 403 87 832
36 1186 -142 177 -88 310 -185 470 -341 l85 -84 96 83 c53 46 97 88 97 94 1
15 -209 218 -284 275 -274 209 -591 346 -935 404 -114 19 -423 27 -539 14z"/>
<path d="M3290 5395 c-232 -39 -461 -134 -652 -272 -77 -55 -249 -215 -247
-230 0 -8 124 -118 175 -156 l24 -19 88 84 c239 227 521 338 855 338 328 0
612 -113 849 -339 78 -74 90 -82 106 -70 9 8 53 45 97 83 44 39 82 71 84 73 7
5 -71 86 -143 151 -206 183 -461 304 -741 352 -136 23 -374 26 -495 5z"/>
<path d="M3435 4869 c-218 -19 -441 -124 -597 -280 l-49 -49 83 -72 c46 -40
91 -79 100 -87 16 -12 26 -6 90 48 82 70 201 133 298 157 147 38 350 15 490
-56 62 -31 160 -105 196 -147 l21 -24 102 91 103 90 -61 60 c-110 107 -253
190 -403 234 -77 22 -112 28 -248 40 -19 2 -75 -1 -125 -5z"/>
<path d="M3556 4393 c-3 -21 -6 -75 -6 -120 0 -99 -20 -197 -60 -300 -36 -93
-121 -237 -143 -241 -11 -2 -24 24 -49 100 -20 60 -41 104 -49 106 -9 1 -44
-49 -96 -135 -159 -270 -178 -321 -170 -477 3 -61 11 -135 19 -163 l15 -53
-156 -2 -156 -3 -3 -103 -3 -102 838 2 838 3 3 94 c2 69 -1 97 -10 103 -7 4
-76 8 -153 8 l-140 0 3 101 c3 98 -18 242 -37 253 -4 3 -34 -22 -66 -54 -33
-33 -63 -60 -68 -60 -5 0 -5 71 -2 158 12 254 -13 357 -143 606 -83 157 -173
308 -188 313 -6 2 -14 -13 -18 -34z"/>
<path d="M2912 2783 l3 -58 278 -3 277 -2 0 -35 0 -35 -277 -2 -278 -3 -3 -57
-3 -58 626 0 625 0 0 155 0 155 -625 0 -626 0 3 -57z"/>
<path d="M3215 2468 c-2 -7 33 -305 78 -662 l82 -649 28 -21 c23 -17 46 -22
116 -24 119 -5 146 8 160 80 22 108 151 1178 151 1253 l0 35 -305 0 c-236 0
-307 -3 -310 -12z"/>
</g>
</svg>
